<svg width="356" height="99" viewBox="0 0 356 99" fill="none" xmlns="http://www.w3.org/2000/svg">
<g clip-path="url(#clip0_862_11332)">
<path d="M137.884 31.9818C135.924 30.7988 133.577 30.1973 130.899 30.1973C128.22 30.1973 125.738 30.8238 123.592 32.0519C121.446 33.2851 119.752 35.0345 118.551 37.24C117.355 39.4406 116.747 41.957 116.747 44.7189C116.747 47.4809 117.39 49.9973 118.662 52.1828C119.933 54.3733 121.727 56.1077 123.989 57.3408C126.245 58.5689 128.828 59.1905 131.663 59.1905C133.261 59.1905 134.959 58.8947 136.703 58.3083C138.452 57.7218 139.94 56.9448 141.121 56.0125C141.779 55.5212 142.111 54.8896 142.111 54.1377C142.111 53.3858 141.749 52.664 141.05 52.0825C140.593 51.6715 139.98 51.461 139.226 51.461C138.472 51.461 137.824 51.6815 137.281 52.1076C136.613 52.6139 135.743 53.055 134.693 53.4059C133.648 53.7618 132.628 53.9372 131.663 53.9372C129.21 53.9372 127.11 53.2405 125.426 51.862C123.878 50.5988 122.878 48.9396 122.456 46.9345H141.206C142 46.9345 142.668 46.6789 143.191 46.1776C143.719 45.6713 143.99 45.0247 143.99 44.2578C143.99 41.5359 143.463 39.0847 142.422 36.9744C141.372 34.849 139.849 33.1648 137.889 31.9818H137.884ZM130.899 35.4455C132.999 35.4455 134.723 36.0821 136.015 37.3453C137.216 38.5183 138 40.0772 138.342 41.992H122.516C122.954 40.0872 123.848 38.5283 125.18 37.3604C126.627 36.0922 128.552 35.4455 130.899 35.4455Z" fill="#003875"/>
<path d="M167.912 31.7156C165.992 30.6729 163.801 30.1416 161.404 30.1416C159.665 30.1416 158.002 30.4524 156.469 31.0589C155.258 31.5401 154.162 32.1868 153.202 32.9888C153.122 32.287 152.85 31.7005 152.383 31.2344C151.825 30.678 151.086 30.3922 150.187 30.3922C149.287 30.3922 148.599 30.6729 148.021 31.2293C147.443 31.7858 147.146 32.5276 147.146 33.4249V56.0019C147.146 56.8641 147.438 57.5959 148.016 58.1674C148.589 58.7438 149.323 59.0346 150.187 59.0346C151.051 59.0346 151.83 58.7438 152.388 58.1624C152.941 57.5909 153.222 56.8641 153.222 56.0019V41.7259C153.222 40.608 153.529 39.5854 154.137 38.6832C154.75 37.7759 155.614 37.044 156.705 36.5077C157.806 35.9663 159.047 35.6906 160.389 35.6906C162.695 35.6906 164.56 36.3573 165.942 37.6706C167.314 38.9789 168.012 40.9539 168.012 43.5455V55.9969C168.012 56.8591 168.304 57.5909 168.882 58.1624C169.455 58.7388 170.188 59.0296 171.053 59.0296C171.917 59.0296 172.646 58.7388 173.224 58.1624C173.802 57.5859 174.093 56.8591 174.093 55.9969V43.5455C174.093 40.7534 173.545 38.3223 172.465 36.3222C171.379 34.3121 169.852 32.7632 167.922 31.7106L167.912 31.7156Z" fill="#003875"/>
<path d="M201.843 30.7929C201.039 30.3919 199.918 30.3719 199.019 30.8832C198.551 31.1488 198.195 31.5248 197.943 32.021L189.621 50.1218L181.193 32.006C180.952 31.5248 180.605 31.1488 180.158 30.8832C179.716 30.6225 179.249 30.4922 178.761 30.4922C178.274 30.4922 177.846 30.5975 177.495 30.7929C176.389 31.3443 175.826 32.1815 175.826 33.2692C175.826 33.6752 175.912 34.0512 176.072 34.372L186.837 57.0091C187.179 57.6959 187.561 58.1721 188.003 58.4678C188.45 58.7736 189.013 58.924 189.676 58.924C190.526 58.924 191.692 58.5881 192.415 56.9991L203.17 34.377C203.371 33.981 203.471 33.59 203.471 33.2141C203.471 32.6877 203.326 32.2015 203.039 31.7754C202.758 31.3544 202.356 31.0235 201.843 30.7829V30.7929Z" fill="#003875"/>
<path d="M209.221 30.3975C208.357 30.3975 207.633 30.6782 207.055 31.2346C206.477 31.791 206.181 32.5329 206.181 33.4301V55.957C206.181 56.8192 206.472 57.546 207.05 58.1225C207.623 58.6989 208.357 58.9897 209.221 58.9897C210.085 58.9897 210.864 58.6989 211.422 58.1175C211.975 57.546 212.261 56.8192 212.261 55.957V33.4301C212.261 32.5379 211.98 31.801 211.417 31.2396C210.859 30.6832 210.121 30.3975 209.221 30.3975Z" fill="#003875"/>
<path d="M209.221 21.3896C208.186 21.3896 207.286 21.7656 206.543 22.5075C205.799 23.2493 205.422 24.1466 205.422 25.1792C205.422 26.2118 205.799 27.1091 206.543 27.851C207.286 28.5928 208.186 28.9688 209.221 28.9688C210.256 28.9688 211.156 28.5928 211.9 27.851C212.643 27.1091 213.02 26.2118 213.02 25.1792C213.02 24.1466 212.643 23.2493 211.9 22.5075C211.156 21.7656 210.256 21.3896 209.221 21.3896Z" fill="#003875"/>
<path d="M236.68 32.1012C234.504 30.833 232.047 30.1914 229.373 30.1914C226.7 30.1914 224.227 30.833 222.016 32.0962C219.805 33.3644 218.051 35.1239 216.8 37.3244C215.548 39.525 214.915 42.0113 214.915 44.7081C214.915 47.4049 215.503 49.8811 216.669 52.0817C217.835 54.2873 219.458 56.0367 221.498 57.2898C223.539 58.543 225.85 59.1796 228.358 59.1796C230.378 59.1796 232.288 58.7585 234.032 57.9214C235.414 57.2598 236.645 56.3825 237.701 55.2998V55.9966C237.701 56.8587 237.992 57.5906 238.57 58.162C239.143 58.7385 239.877 59.0292 240.741 59.0292C241.605 59.0292 242.334 58.7385 242.912 58.162C243.49 57.5856 243.781 56.8587 243.781 55.9966V44.7081C243.781 42.0113 243.138 39.525 241.872 37.3194C240.6 35.1188 238.856 33.3594 236.685 32.0962L236.68 32.1012ZM225.016 36.8181C226.308 36.0362 227.775 35.6402 229.378 35.6402C230.981 35.6402 232.444 36.0362 233.74 36.8181C235.032 37.6001 236.062 38.6929 236.801 40.0613C237.54 41.4398 237.917 43.0038 237.917 44.7081C237.917 46.4124 237.54 47.9663 236.801 49.3297C236.067 50.6882 235.037 51.7709 233.74 52.5529C232.449 53.3348 230.981 53.7309 229.378 53.7309C227.775 53.7309 226.308 53.3348 225.016 52.5529C223.72 51.7709 222.679 50.6832 221.931 49.3247C221.177 47.9663 220.795 46.4124 220.795 44.7081C220.795 43.0038 221.177 41.4398 221.931 40.0613C222.684 38.6879 223.72 37.5951 225.016 36.8131V36.8181Z" fill="#003875"/>
<path d="M253.36 49.9521C252.119 49.9521 251.028 50.4083 250.124 51.3156C249.219 52.2179 248.762 53.3257 248.762 54.5989C248.762 55.8721 249.219 56.9248 250.124 57.827C251.028 58.7293 252.119 59.1855 253.36 59.1855C254.601 59.1855 255.742 58.7243 256.632 57.822C257.516 56.9197 257.963 55.837 257.963 54.5989C257.963 53.3608 257.506 52.2179 256.601 51.3156C255.697 50.4133 254.606 49.9521 253.365 49.9521H253.36Z" fill="#003875"/>
<path d="M273.964 35.6452C275.18 35.6452 276.275 35.8457 277.215 36.2417C278.15 36.6377 279.029 37.2743 279.818 38.1264C280.447 38.8332 281.226 39.1891 282.135 39.1891C282.668 39.1891 283.145 39.0438 283.557 38.758C284.427 38.1665 284.869 37.4096 284.869 36.5124C284.869 35.8958 284.658 35.3494 284.251 34.9033C281.537 31.7754 278.075 30.1914 273.964 30.1914C271.26 30.1914 268.793 30.818 266.637 32.0461C264.476 33.2792 262.772 35.0236 261.566 37.2342C260.37 39.4347 259.762 41.9511 259.762 44.7131C259.762 47.475 260.385 49.8962 261.621 52.0967C262.857 54.3023 264.596 56.0517 266.792 57.3049C268.983 58.553 271.481 59.1846 274.22 59.1846C277.974 59.1846 281.15 58.0016 283.673 55.6607C284.165 55.1695 284.412 54.6031 284.412 53.9765C284.412 53.1694 284.035 52.4376 283.266 51.796C282.185 50.9889 280.849 51.0792 279.512 52.0616C278.18 53.1694 276.401 53.7309 274.215 53.7309C272.547 53.7309 271.044 53.3449 269.747 52.5779C268.456 51.816 267.436 50.7383 266.717 49.3849C265.993 48.0214 265.626 46.4475 265.626 44.7081C265.626 41.9712 266.405 39.7455 267.943 38.1014C269.491 36.4422 271.461 35.6352 273.959 35.6352L273.964 35.6452Z" fill="#003875"/>
<path d="M307.464 32.0461C305.288 30.813 302.801 30.1914 300.062 30.1914C297.323 30.1914 294.775 30.813 292.584 32.0461C290.388 33.2792 288.654 35.0186 287.438 37.2041C286.222 39.3846 285.604 41.911 285.604 44.7131C285.604 47.5152 286.222 49.9864 287.438 52.1719C288.659 54.3624 290.388 56.0968 292.584 57.3299C294.775 58.5631 297.288 59.1846 300.062 59.1846C302.836 59.1846 305.344 58.558 307.515 57.3299C309.691 56.0968 311.414 54.3624 312.636 52.1719C313.852 49.9864 314.47 47.4801 314.47 44.7131C314.47 41.9461 313.847 39.3896 312.61 37.2041C311.374 35.0186 309.645 33.2842 307.469 32.0461H307.464ZM304.474 52.583C303.183 53.3499 301.695 53.7359 300.062 53.7359C298.429 53.7359 296.941 53.3499 295.644 52.583C294.353 51.816 293.323 50.7433 292.589 49.3899C291.85 48.0315 291.478 46.4575 291.478 44.7181C291.478 42.9787 291.855 41.3947 292.594 40.0212C293.328 38.6478 294.358 37.565 295.649 36.8031C296.941 36.0362 298.429 35.6502 300.067 35.6502C301.705 35.6502 303.188 36.0362 304.479 36.8031C305.771 37.565 306.791 38.6478 307.51 40.0162C308.233 41.3947 308.6 42.9787 308.6 44.7181C308.6 46.4575 308.233 48.0315 307.51 49.3949C306.791 50.7483 305.771 51.821 304.479 52.588L304.474 52.583Z" fill="#003875"/>
<path d="M353.16 33.1694C351.271 31.1593 348.758 30.1417 345.703 30.1417C343.783 30.1417 342.014 30.5127 340.436 31.2445C339.039 31.8962 337.838 32.7734 336.848 33.8661C335.983 32.7483 334.908 31.8611 333.647 31.2245C332.219 30.5026 330.586 30.1367 328.802 30.1367C327.329 30.1367 325.942 30.3924 324.676 30.9037C323.681 31.3047 322.786 31.836 322.002 32.4877C321.857 32.0115 321.605 31.5954 321.249 31.2495C320.691 30.7132 319.972 30.4425 319.108 30.4425C318.243 30.4425 317.52 30.7232 316.942 31.2796C316.364 31.836 316.067 32.5779 316.067 33.4751V56.002C316.067 56.8642 316.359 57.5961 316.937 58.1675C317.51 58.744 318.243 59.0347 319.108 59.0347C319.972 59.0347 320.751 58.744 321.309 58.1625C321.862 57.591 322.148 56.8642 322.148 56.002V41.726C322.148 39.9615 322.681 38.4978 323.726 37.375C324.782 36.2421 326.108 35.6958 327.787 35.6958C329.465 35.6958 330.646 36.172 331.601 37.1544C332.546 38.1269 333.023 39.5956 333.023 41.5255V56.002C333.023 56.8642 333.315 57.5961 333.893 58.1675C334.466 58.744 335.199 59.0347 336.064 59.0347C336.928 59.0347 337.707 58.744 338.265 58.1625C338.818 57.591 339.104 56.8642 339.104 56.002V41.726C339.104 39.9615 339.637 38.4978 340.682 37.375C341.738 36.2471 343.049 35.6958 344.693 35.6958C346.336 35.6958 347.552 36.172 348.507 37.1544C349.452 38.1269 349.929 39.5956 349.929 41.5255V56.002C349.929 56.8642 350.221 57.5961 350.798 58.1675C351.371 58.744 352.105 59.0347 352.969 59.0347C353.834 59.0347 354.613 58.744 355.171 58.1625C355.723 57.591 356.01 56.8642 356.01 56.002V41.5255C356.01 37.9815 355.055 35.1694 353.171 33.1694H353.16Z" fill="#003875"/>
<path d="M72.9299 69.7614C72.4625 65.9167 71.4474 57.5105 71.4474 57.5054L69.0502 68.7488C68.7788 70.017 67.5727 70.8592 66.2912 70.6787L56.0644 69.2451C55.2251 69.1248 54.5014 68.5884 54.1547 67.8165L51.069 60.9692C51.069 60.9692 50.4409 63.9116 49.9785 66.0771C49.7071 67.3453 48.501 68.1874 47.2195 68.007L36.6107 66.5182C35.9876 66.433 35.4247 66.1122 35.0327 65.6259L31.4295 61.1647L30.952 63.4154C30.6807 64.6836 29.4746 65.5257 28.1931 65.3452L17.916 63.9066C17.1018 63.7913 16.3983 63.285 16.0414 62.5482L0.201135 30.1965C0.0101667 29.8005 -0.0451135 29.3544 0.0453451 28.9233C0.261441 27.9107 1.22633 27.239 2.25153 27.3844L24.6099 30.5173C25.0823 30.5825 25.3989 31.0336 25.2984 31.4998L23.5194 39.8509C23.4289 40.2719 23.0319 40.5526 22.6047 40.4925L16.1771 39.6503L21.3283 50.1619L21.4941 49.3899C21.7655 48.1217 22.9716 47.2796 24.2531 47.4601L34.6709 48.9188C35.4046 49.019 36.0529 49.4451 36.4348 50.0767L39.7768 55.5505L44.0384 35.545C44.3098 34.2768 45.5159 33.4347 46.7974 33.6151L56.5971 34.9886C57.6575 35.139 58.5017 35.951 58.6877 37.0037L60.8034 49.024L66.6279 21.705C66.8993 20.4368 68.1054 19.5947 69.3869 19.7752L78.865 21.1035C80.0711 21.2739 80.9757 22.2965 80.9908 23.5096L81.242 42.287L89.8507 1.95516C90.1221 0.686958 91.3282 -0.155169 92.6097 0.0252869L102.6 1.42382C103.565 1.55916 104.359 2.24589 104.631 3.18326L107.671 13.7149C107.837 14.2863 107.354 14.8377 106.766 14.7575L99.7509 13.775L87.4837 71.3354C87.2123 72.6036 86.0062 73.4457 84.7197 73.2652L75.0356 71.9018C73.9249 71.7464 73.0605 70.8692 72.9249 69.7564L72.9299 69.7614Z" fill="#003875"/>
<path d="M30.9316 63.4098L33.3941 51.8556C33.3941 51.8556 33.9167 49.4144 35.3239 49.1086C35.148 49.0335 34.962 48.9783 34.7711 48.9432C33.0222 48.6976 24.2527 47.4695 24.2527 47.4695C23.8557 47.4144 23.4637 47.4545 23.1069 47.5798C22.3129 47.8555 21.6897 48.5272 21.5038 49.3944L21.338 50.1663L21.3279 50.1513L18.8101 61.941C18.8101 61.941 18.4935 63.4599 17.2422 63.7105C17.4533 63.8058 17.6744 63.8709 17.9056 63.906L28.1827 65.3446C28.5043 65.3898 28.8159 65.3697 29.1124 65.2995C30.0019 65.079 30.7256 64.3672 30.9316 63.4198V63.4098Z" fill="#8A2F81"/>
<path d="M49.9631 66.0768L55.9434 38.0159C55.9434 38.0159 56.3957 35.9056 57.5968 35.3542C57.3103 35.1737 56.9837 35.0434 56.6319 34.9933L46.802 33.6198C46.4804 33.5747 46.1638 33.5947 45.8673 33.6649C44.9778 33.8905 44.2541 34.5973 44.0531 35.5447L39.7915 55.5502L39.7815 55.5351C38.9523 59.425 37.8517 64.598 37.8517 64.598C37.8517 64.598 37.5652 66.2722 36.1279 66.3926C36.2837 66.4477 36.4445 66.4878 36.6104 66.5129L47.2192 68.0016C47.6162 68.0568 48.0082 68.0167 48.365 67.8913C49.154 67.6156 49.7822 66.9439 49.9681 66.0768H49.9631Z" fill="#019DE1"/>
<path d="M69.0344 68.7535L78.5376 24.1659C78.5376 24.1659 78.9497 22.236 80.0402 21.5944C79.7186 21.3488 79.3316 21.1783 78.9044 21.1132L69.3962 19.7848C69.0746 19.7397 68.758 19.7598 68.4615 19.8299C67.572 20.0555 66.8483 20.7623 66.6473 21.7097L60.8228 49.0287V49.0036L56.923 67.2798C56.923 67.2798 56.6014 68.7836 55.3701 69.0392C55.5862 69.1395 55.8174 69.2096 56.0586 69.2447L66.2855 70.6783C66.6071 70.7235 66.9237 70.7034 67.2202 70.6332C68.1097 70.4077 68.8334 69.7009 69.0344 68.7535Z" fill="#46A934"/>
<path d="M84.7193 73.2649C86.0058 73.4453 87.2119 72.6032 87.4833 71.335L100.137 11.945L101.746 4.40099C101.746 4.40099 102.218 2.1904 103.479 1.71921C103.253 1.58889 103.002 1.49364 102.736 1.44352L92.5993 0.0299483C92.2776 -0.0151656 91.961 0.00488502 91.6645 0.0750622C90.775 0.300632 90.0513 1.00742 89.8503 1.95481L81.2568 42.2967V42.2265L75.3669 69.8663C75.3669 69.8663 75.0905 71.1646 74.0703 71.5556C74.3568 71.736 74.6834 71.8563 75.0402 71.9064L84.7243 73.2699L84.7193 73.2649Z" fill="#FC2601"/>
<path fill-rule="evenodd" clip-rule="evenodd" d="M44.7219 72.2627C38.5909 66.854 30.2687 70.1172 28.6655 76.769C27.4393 81.8017 30.5501 86.9247 35.6409 88.1929C42.4002 89.817 49.2399 83.8168 46.903 75.6913C46.5211 74.363 45.7572 73.175 44.7219 72.2576V72.2627Z" fill="#003875"/>
<path fill-rule="evenodd" clip-rule="evenodd" d="M74.7038 76.288C69.9548 71.7214 63.2659 74.2629 61.9994 79.5061C61.0496 83.4761 63.4669 87.401 67.4018 88.3434C72.7087 89.6166 78.1011 84.7844 76.0155 78.3682C75.7592 77.5762 75.3019 76.8594 74.7038 76.283V76.288Z" fill="#003875"/>
<path d="M237.138 92.3631C236.278 92.3631 235.514 92.1275 234.851 91.6613C234.188 91.1951 233.67 90.5535 233.298 89.7465C232.926 88.9394 232.74 88.0071 232.74 86.9544V70.9891C232.74 70.563 232.876 70.2071 233.152 69.9364C233.429 69.6657 233.775 69.5254 234.208 69.5254C234.64 69.5254 234.992 69.6607 235.263 69.9364C235.534 70.2121 235.675 70.563 235.675 70.9891V86.9544C235.675 87.6762 235.811 88.2727 236.087 88.7389C236.359 89.2051 236.71 89.4407 237.143 89.4407H237.876C238.268 89.4407 238.585 89.576 238.831 89.8517C239.077 90.1274 239.198 90.4783 239.198 90.9044C239.198 91.3305 239.012 91.6864 238.64 91.957C238.268 92.2327 237.791 92.3681 237.203 92.3681H237.143L237.138 92.3631Z" fill="#019DE1"/>
<path d="M248.515 92.4781C246.932 92.4781 245.535 92.1322 244.324 91.4404C243.112 90.7487 242.158 89.7913 241.464 88.5732C240.771 87.3551 240.424 85.9566 240.424 84.3776C240.424 82.7986 240.771 81.37 241.464 80.1519C242.158 78.9339 243.112 77.9764 244.324 77.2847C245.535 76.5929 246.932 76.2471 248.515 76.2471C250.098 76.2471 251.465 76.5929 252.676 77.2847C253.887 77.9764 254.842 78.9339 255.535 80.1519C256.229 81.37 256.576 82.7786 256.576 84.3776C256.576 85.9766 256.234 87.3551 255.551 88.5732C254.867 89.7913 253.917 90.7487 252.706 91.4404C251.495 92.1322 250.098 92.4781 248.515 92.4781ZM248.515 89.8464C249.53 89.8464 250.43 89.6108 251.214 89.1446C251.998 88.6785 252.606 88.0318 253.048 87.2148C253.49 86.3977 253.706 85.4503 253.706 84.3776C253.706 83.3049 253.485 82.3575 253.048 81.5254C252.606 80.6983 251.998 80.0467 251.214 79.5805C250.43 79.1143 249.53 78.8787 248.515 78.8787C247.5 78.8787 246.6 79.1143 245.816 79.5805C245.032 80.0467 244.419 80.6983 243.967 81.5254C243.514 82.3525 243.293 83.3049 243.293 84.3776C243.293 85.4503 243.52 86.3977 243.967 87.2148C244.414 88.0318 245.032 88.6785 245.816 89.1446C246.6 89.6108 247.495 89.8464 248.515 89.8464Z" fill="#019DE1"/>
<path d="M267.718 92.4781C266.251 92.4781 264.959 92.1322 263.833 91.4404C262.708 90.7487 261.823 89.7913 261.18 88.5732C260.537 87.3551 260.21 85.9566 260.21 84.3776C260.21 82.7986 260.557 81.37 261.25 80.1519C261.944 78.9339 262.899 77.9764 264.11 77.2847C265.321 76.5929 266.718 76.2471 268.301 76.2471C269.884 76.2471 271.251 76.5929 272.462 77.2847C273.673 77.9764 274.628 78.9339 275.322 80.1519C276.015 81.37 276.362 82.7786 276.362 84.3776H274.633C274.633 85.9566 274.337 87.3551 273.739 88.5732C273.141 89.7913 272.326 90.7487 271.291 91.4404C270.256 92.1322 269.065 92.4781 267.713 92.4781H267.718ZM268.246 98.9995C266.859 98.9995 265.557 98.7238 264.346 98.1825C263.135 97.6361 262.11 96.8391 261.265 95.7864C261.009 95.4556 260.919 95.1147 260.989 94.7638C261.059 94.4129 261.25 94.1322 261.562 93.9167C261.914 93.6811 262.28 93.6059 262.662 93.6811C263.044 93.7563 263.351 93.9518 263.587 94.2676C264.115 94.9292 264.778 95.4455 265.582 95.8165C266.381 96.1874 267.291 96.3729 268.311 96.3729C269.251 96.3729 270.115 96.1473 270.904 95.7012C271.698 95.2501 272.326 94.5884 272.794 93.7112C273.261 92.834 273.497 91.7612 273.497 90.493V86.3426L274.467 83.7711L276.372 84.3876V90.7036C276.372 92.2425 276.03 93.641 275.347 94.8992C274.663 96.1574 273.708 97.1549 272.487 97.8967C271.266 98.6386 269.854 99.0096 268.251 99.0096L268.246 98.9995ZM268.306 89.8464C269.321 89.8464 270.221 89.6108 271.005 89.1446C271.789 88.6785 272.397 88.0318 272.839 87.2148C273.281 86.3977 273.497 85.4503 273.497 84.3776C273.497 83.3049 273.276 82.3575 272.839 81.5254C272.397 80.6983 271.789 80.0467 271.005 79.5805C270.221 79.1143 269.321 78.8787 268.306 78.8787C267.291 78.8787 266.391 79.1143 265.607 79.5805C264.823 80.0467 264.21 80.6983 263.758 81.5254C263.306 82.3525 263.085 83.3049 263.085 84.3776C263.085 85.4503 263.311 86.3977 263.758 87.2148C264.205 88.0318 264.823 88.6785 265.607 89.1446C266.391 89.6108 267.286 89.8464 268.306 89.8464Z" fill="#019DE1"/>
<path d="M282.614 73.7611C282.086 73.7611 281.634 73.5706 281.252 73.1897C280.87 72.8087 280.679 72.3576 280.679 71.8312C280.679 71.3049 280.87 70.8538 281.252 70.4728C281.634 70.0918 282.086 69.9014 282.614 69.9014C283.141 69.9014 283.593 70.0918 283.975 70.4728C284.357 70.8538 284.548 71.3049 284.548 71.8312C284.548 72.3576 284.357 72.8087 283.975 73.1897C283.593 73.5706 283.141 73.7611 282.614 73.7611ZM282.614 92.3631C282.181 92.3631 281.825 92.2227 281.543 91.937C281.262 91.6563 281.116 91.3004 281.116 90.8693V77.8565C281.116 77.4103 281.257 77.0494 281.543 76.7737C281.825 76.503 282.181 76.3627 282.614 76.3627C283.046 76.3627 283.423 76.498 283.699 76.7737C283.97 77.0494 284.111 77.4053 284.111 77.8565V90.8693C284.111 91.3004 283.975 91.6563 283.699 91.937C283.423 92.2177 283.066 92.3631 282.614 92.3631Z" fill="#019DE1"/>
<path d="M295.514 92.4781C294.147 92.4781 292.88 92.2675 291.714 91.8515C290.554 91.4304 289.649 90.8991 289.001 90.2574C288.709 89.9467 288.584 89.5908 288.634 89.1897C288.684 88.7887 288.875 88.4629 289.207 88.2123C289.599 87.9015 289.986 87.7712 290.363 87.8163C290.745 87.8664 291.071 88.0368 291.343 88.3276C291.674 88.6985 292.207 89.0444 292.941 89.3652C293.674 89.686 294.489 89.8464 295.388 89.8464C296.524 89.8464 297.388 89.6609 297.981 89.29C298.579 88.9191 298.886 88.4429 298.906 87.8564C298.926 87.2699 298.645 86.7636 298.072 86.3376C297.494 85.9065 296.443 85.5556 294.921 85.2849C292.946 84.8939 291.513 84.3124 290.624 83.5305C289.734 82.7485 289.292 81.7961 289.292 80.6632C289.292 79.6707 289.584 78.8436 290.172 78.192C290.76 77.5403 291.508 77.0491 292.428 76.7283C293.348 76.4075 294.303 76.2471 295.303 76.2471C296.594 76.2471 297.735 76.4526 298.735 76.8636C299.73 77.2747 300.524 77.8411 301.112 78.5579C301.383 78.8687 301.514 79.1945 301.494 79.5354C301.474 79.8762 301.308 80.162 300.997 80.3976C300.685 80.6131 300.313 80.6783 299.881 80.6031C299.449 80.5229 299.087 80.3474 298.795 80.0767C298.308 79.6106 297.78 79.2847 297.212 79.1093C296.644 78.9339 295.991 78.8436 295.247 78.8436C294.388 78.8436 293.659 78.989 293.061 79.2847C292.463 79.5755 292.167 80.0066 292.167 80.573C292.167 80.9239 292.257 81.2397 292.443 81.5254C292.629 81.8061 292.996 82.0618 293.544 82.2873C294.091 82.5129 294.891 82.7335 295.946 82.944C297.413 83.2347 298.569 83.6057 299.419 84.0568C300.268 84.5079 300.881 85.0292 301.253 85.6207C301.625 86.2172 301.811 86.904 301.811 87.6809C301.811 88.5782 301.569 89.3852 301.092 90.1071C300.615 90.8289 299.911 91.4053 298.981 91.8314C298.052 92.2625 296.896 92.473 295.509 92.473L295.514 92.4781Z" fill="#019DE1"/>
<path d="M304.926 79.4651C304.514 79.4651 304.182 79.3498 303.931 79.1142C303.674 78.8786 303.549 78.5879 303.549 78.237C303.549 77.846 303.674 77.5352 303.931 77.2996C304.187 77.064 304.519 76.9487 304.926 76.9487H311.7C312.112 76.9487 312.444 77.064 312.695 77.2996C312.951 77.5352 313.077 77.846 313.077 78.237C313.077 78.5879 312.951 78.8786 312.695 79.1142C312.439 79.3498 312.107 79.4651 311.7 79.4651H304.926ZM311.434 92.3627C310.454 92.3627 309.574 92.112 308.795 91.6158C308.011 91.1195 307.398 90.4428 306.946 89.5857C306.494 88.7285 306.273 87.761 306.273 86.6883V72.7381C306.273 72.307 306.408 71.9561 306.685 71.6854C306.956 71.4148 307.308 71.2744 307.74 71.2744C308.172 71.2744 308.524 71.4098 308.795 71.6854C309.067 71.9611 309.208 72.312 309.208 72.7381V86.6883C309.208 87.4703 309.424 88.122 309.851 88.6483C310.278 89.1746 310.811 89.4403 311.434 89.4403H312.429C312.781 89.4403 313.077 89.5756 313.323 89.8513C313.57 90.127 313.69 90.4779 313.69 90.904C313.69 91.3301 313.529 91.686 313.208 91.9566C312.886 92.2323 312.469 92.3677 311.961 92.3677H311.434V92.3627Z" fill="#019DE1"/>
<path d="M319.144 73.7611C318.616 73.7611 318.164 73.5706 317.782 73.1897C317.4 72.8087 317.209 72.3576 317.209 71.8312C317.209 71.3049 317.4 70.8538 317.782 70.4728C318.164 70.0918 318.616 69.9014 319.144 69.9014C319.671 69.9014 320.124 70.0918 320.506 70.4728C320.888 70.8538 321.079 71.3049 321.079 71.8312C321.079 72.3576 320.888 72.8087 320.506 73.1897C320.124 73.5706 319.671 73.7611 319.144 73.7611ZM319.144 92.3631C318.712 92.3631 318.355 92.2227 318.073 91.937C317.792 91.6563 317.646 91.3004 317.646 90.8693V77.8565C317.646 77.4103 317.787 77.0494 318.073 76.7737C318.355 76.503 318.712 76.3627 319.144 76.3627C319.576 76.3627 319.953 76.498 320.229 76.7737C320.501 77.0494 320.641 77.4053 320.641 77.8565V90.8693C320.641 91.3004 320.506 91.6563 320.229 91.937C319.953 92.2177 319.596 92.3631 319.144 92.3631Z" fill="#019DE1"/>
<path d="M333.481 92.4782C331.918 92.4782 330.526 92.1223 329.305 91.4105C328.083 90.6987 327.123 89.7363 326.43 88.5132C325.736 87.2951 325.39 85.9166 325.39 84.3727C325.39 82.8288 325.731 81.3902 326.415 80.1621C327.098 78.934 328.038 77.9716 329.229 77.2798C330.42 76.5881 331.787 76.2422 333.335 76.2422C334.486 76.2422 335.541 76.4627 336.501 76.8988C337.461 77.34 338.32 77.9966 339.079 78.8738C339.35 79.1846 339.451 79.5054 339.371 79.8413C339.29 80.1721 339.079 80.4679 338.727 80.7185C338.451 80.914 338.149 80.9791 337.818 80.909C337.486 80.8388 337.184 80.6684 336.908 80.3977C335.948 79.3851 334.757 78.8788 333.33 78.8788C332.335 78.8788 331.455 79.1094 330.692 79.5656C329.928 80.0217 329.335 80.6634 328.902 81.4804C328.47 82.2975 328.259 83.2649 328.259 84.3777C328.259 85.4304 328.48 86.3677 328.918 87.1848C329.355 88.0019 329.968 88.6535 330.752 89.1297C331.536 89.6059 332.44 89.8465 333.481 89.8465C334.164 89.8465 334.767 89.7663 335.285 89.5959C335.802 89.4305 336.275 89.1698 336.707 88.8189C337.019 88.5633 337.34 88.4229 337.677 88.3929C338.009 88.3628 338.3 88.458 338.556 88.6686C338.888 88.9443 339.074 89.25 339.114 89.5909C339.154 89.9318 339.034 90.2375 338.762 90.5132C337.355 91.8215 335.596 92.4732 333.486 92.4732L333.481 92.4782Z" fill="#019DE1"/>
<path d="M349.668 92.4781C348.301 92.4781 347.035 92.2675 345.869 91.8515C344.708 91.4304 343.803 90.8991 343.155 90.2574C342.864 89.9467 342.738 89.5908 342.788 89.1897C342.838 88.7887 343.029 88.4629 343.361 88.2123C343.753 87.9015 344.14 87.7712 344.517 87.8163C344.899 87.8664 345.226 88.0368 345.497 88.3276C345.829 88.6985 346.361 89.0444 347.095 89.3652C347.829 89.686 348.643 89.8464 349.542 89.8464C350.678 89.8464 351.543 89.6609 352.136 89.29C352.734 88.9191 353.04 88.4429 353.06 87.8564C353.08 87.2699 352.799 86.7636 352.226 86.3376C351.648 85.9065 350.598 85.5556 349.075 85.2849C347.1 84.8939 345.668 84.3124 344.778 83.5305C343.889 82.7485 343.446 81.7961 343.446 80.6632C343.446 79.6707 343.738 78.8436 344.326 78.192C344.914 77.5403 345.663 77.0491 346.582 76.7283C347.502 76.4075 348.457 76.2471 349.457 76.2471C350.749 76.2471 351.889 76.4526 352.889 76.8636C353.884 77.2747 354.678 77.8411 355.266 78.5579C355.538 78.8687 355.668 79.1945 355.648 79.5354C355.628 79.8762 355.462 80.162 355.151 80.3976C354.839 80.6131 354.467 80.6783 354.035 80.6031C353.603 80.5229 353.241 80.3474 352.95 80.0767C352.462 79.6106 351.935 79.2847 351.367 79.1093C350.799 78.9339 350.145 78.8436 349.402 78.8436C348.542 78.8436 347.814 78.989 347.216 79.2847C346.618 79.5755 346.321 80.0066 346.321 80.573C346.321 80.9239 346.412 81.2397 346.597 81.5254C346.783 81.8061 347.15 82.0618 347.698 82.2873C348.246 82.5129 349.045 82.7335 350.1 82.944C351.568 83.2347 352.724 83.6057 353.573 84.0568C354.422 84.5079 355.035 85.0292 355.407 85.6207C355.779 86.2172 355.965 86.904 355.965 87.6809C355.965 88.5782 355.724 89.3852 355.246 90.1071C354.769 90.8289 354.065 91.4053 353.136 91.8314C352.206 92.2625 351.05 92.473 349.663 92.473L349.668 92.4781Z" fill="#019DE1"/>
</g>
<defs>
<clipPath id="clip0_862_11332">
<rect width="356" height="99" fill="white"/>
</clipPath>
</defs>
</svg>
